<?xml version="1.0" encoding="iso-8859-1"?>
<!-- Generator: Adobe Illustrator 19.0.0, SVG Export Plug-In . SVG Version: 6.00 Build 0)  -->
<svg version="1.1" id="Layer_1" xmlns="http://www.w3.org/2000/svg" xmlns:xlink="http://www.w3.org/1999/xlink" x="0px" y="0px"
	 viewBox="0 0 512 512" style="enable-background:new 0 0 512 512;" xml:space="preserve">
<path style="fill:#20272E;" d="M301.668,0h-91.339C129.927,0,64.748,65.179,64.748,145.583v220.834
	c0,80.402,65.179,145.581,145.583,145.581h91.339c80.404,0,145.583-65.179,145.583-145.582V145.583
	C447.251,65.179,382.072,0,301.668,0z"/>
<path style="fill:#EEE5DD;" d="M345.337,6.668C331.551,2.339,316.883,0,301.668,0h-15.89h-59.559h-15.89
	c-15.215,0-29.883,2.339-43.669,6.668c-28.792,9.042-53.724,26.791-71.723,50.156v43.748c0,39.612,32.112,71.723,71.723,71.723
	v-62.752h59.559h59.559h59.559v62.75c39.612,0,71.723-32.112,71.723-71.723V56.824C399.061,33.457,374.129,15.71,345.337,6.668z"/>
<path style="fill:#DDCBBD;" d="M301.668,0h-15.89h-59.559h-15.89c-15.215,0-29.883,2.339-43.669,6.668v102.876h59.559h59.559h59.559
	V6.668C331.551,2.339,316.883,0,301.668,0z"/>
<rect x="226.213" style="fill:#EEE5DD;" width="59.559" height="109.54"/>
<path style="fill:#FF3C63;" d="M256.411,257.711L256.411,257.711c-81.098,0-152.155,42.97-191.663,107.379v1.327
	c0,80.402,65.179,145.581,145.583,145.581h91.339c80.404,0,145.583-65.179,145.583-145.582v-2.646
	C407.585,300.098,336.953,257.711,256.411,257.711z"/>
<path style="fill:#EEE5DD;" d="M345.337,328.543v62.752h-59.559h-59.559H166.66v-62.752c-39.612,0-71.723,32.112-71.723,71.723
	v54.909c17.999,23.366,42.93,41.114,71.723,50.156c13.786,4.33,28.454,6.668,43.669,6.668h15.89h59.559h15.89
	c15.215,0,29.883-2.339,43.669-6.668c28.792-9.042,53.724-26.791,71.723-50.156v-54.909
	C417.061,360.655,384.949,328.543,345.337,328.543z"/>
<path style="fill:#DDCBBD;" d="M285.778,391.295h-59.559H166.66v114.037c13.786,4.33,28.454,6.668,43.669,6.668h15.89h59.559h15.89
	c15.215,0,29.883-2.339,43.669-6.668V391.295H285.778z"/>
<rect x="226.213" y="391.292" style="fill:#EEE5DD;" width="59.559" height="120.704"/>
<g>
</g>
<g>
</g>
<g>
</g>
<g>
</g>
<g>
</g>
<g>
</g>
<g>
</g>
<g>
</g>
<g>
</g>
<g>
</g>
<g>
</g>
<g>
</g>
<g>
</g>
<g>
</g>
<g>
</g>
</svg>
